<?xml version="1.0" encoding="UTF-8"?>
<svg xmlns="http://www.w3.org/2000/svg" viewBox="0 0 1200 820" font-family="Inter, -apple-system, sans-serif">
  <defs>
    <marker id="arr-blue" viewBox="0 0 10 10" refX="9" refY="5" markerWidth="8" markerHeight="8" orient="auto">
      <path d="M0,0 L10,5 L0,10 z" fill="#2563eb"/>
    </marker>
    <marker id="arr-orange" viewBox="0 0 10 10" refX="9" refY="5" markerWidth="8" markerHeight="8" orient="auto">
      <path d="M0,0 L10,5 L0,10 z" fill="#ea580c"/>
    </marker>
    <marker id="arr-green" viewBox="0 0 10 10" refX="9" refY="5" markerWidth="8" markerHeight="8" orient="auto">
      <path d="M0,0 L10,5 L0,10 z" fill="#059669"/>
    </marker>
    <marker id="arr-purple" viewBox="0 0 10 10" refX="9" refY="5" markerWidth="8" markerHeight="8" orient="auto">
      <path d="M0,0 L10,5 L0,10 z" fill="#7c3aed"/>
    </marker>
    <filter id="ds" x="-20%" y="-20%" width="140%" height="140%">
      <feDropShadow dx="0" dy="2" stdDeviation="2" flood-opacity="0.15"/>
    </filter>
  </defs>
  <rect width="1200" height="820" fill="#fafafa"/>
  <text x="600" y="40" text-anchor="middle" font-size="22" font-weight="700" fill="#111827">FF Time — Oracle HCM Fast Formula AI Platform</text>
  <text x="600" y="62" text-anchor="middle" font-size="13" fill="#6b7280">React Frontend · Java/Jersey Backend · Dual LLM Providers · Oracle Fusion DB</text>
  <rect x="80" y="90" width="1040" height="110" rx="10" fill="#eff6ff" stroke="#bfdbfe" stroke-width="1.5" stroke-dasharray="5,3"/>
  <text x="100" y="112" font-size="12" font-weight="700" fill="#1e40af">FRONTEND  ·  React + TypeScript + Vite  (port 5173)</text>
  <rect x="110" y="130" width="170" height="55" rx="6" fill="#ffffff" stroke="#3b82f6" stroke-width="1.5" filter="url(#ds)"/>
  <text x="195" y="152" text-anchor="middle" font-size="13" font-weight="600" fill="#1e40af">Monaco Editor</text>
  <text x="195" y="170" text-anchor="middle" font-size="11" fill="#64748b">fast-formula lang</text>
  <rect x="300" y="130" width="170" height="55" rx="6" fill="#ffffff" stroke="#3b82f6" stroke-width="1.5" filter="url(#ds)"/>
  <text x="385" y="152" text-anchor="middle" font-size="13" font-weight="600" fill="#1e40af">EditorWithChat</text>
  <text x="385" y="170" text-anchor="middle" font-size="11" fill="#64748b">FormulaType selector</text>
  <rect x="490" y="130" width="170" height="55" rx="6" fill="#ffffff" stroke="#3b82f6" stroke-width="1.5" filter="url(#ds)"/>
  <text x="575" y="152" text-anchor="middle" font-size="13" font-weight="600" fill="#1e40af">Chat Panel</text>
  <text x="575" y="170" text-anchor="middle" font-size="11" fill="#64748b">SSE streaming</text>
  <rect x="680" y="130" width="170" height="55" rx="6" fill="#ffffff" stroke="#3b82f6" stroke-width="1.5" filter="url(#ds)"/>
  <text x="765" y="152" text-anchor="middle" font-size="13" font-weight="600" fill="#1e40af">Templates Panel</text>
  <text x="765" y="170" text-anchor="middle" font-size="11" fill="#64748b">CRUD UI</text>
  <rect x="870" y="130" width="230" height="55" rx="6" fill="#ffffff" stroke="#3b82f6" stroke-width="1.5" filter="url(#ds)"/>
  <text x="985" y="152" text-anchor="middle" font-size="13" font-weight="600" fill="#1e40af">Zustand Stores</text>
  <text x="985" y="170" text-anchor="middle" font-size="11" fill="#64748b">editor · chat · simulation</text>
  <rect x="400" y="230" width="400" height="60" rx="8" fill="#fef3c7" stroke="#f59e0b" stroke-width="2" filter="url(#ds)"/>
  <text x="600" y="254" text-anchor="middle" font-size="14" font-weight="700" fill="#92400e">Jersey FastFormulaResource  (port 8000)</text>
  <text x="600" y="274" text-anchor="middle" font-size="11" fill="#78716c">REST + SSE · /api/validate /simulate /chat /complete /templates /formulas</text>
  <rect x="40" y="320" width="1120" height="150" rx="10" fill="#f0fdf4" stroke="#86efac" stroke-width="1.5" stroke-dasharray="5,3"/>
  <text x="60" y="342" font-size="12" font-weight="700" fill="#166534">SERVICE LAYER  ·  oracle.apps.hcm.formulas.core.jersey.service</text>
  <rect x="60" y="358" width="160" height="45" rx="6" fill="#ffffff" stroke="#10b981" stroke-width="1.3"/>
  <text x="140" y="377" text-anchor="middle" font-size="12" font-weight="600" fill="#065f46">AiService</text>
  <text x="140" y="393" text-anchor="middle" font-size="10" fill="#4b5563">prompt + RAG + LLM</text>
  <rect x="235" y="358" width="160" height="45" rx="6" fill="#ffffff" stroke="#10b981" stroke-width="1.3"/>
  <text x="315" y="377" text-anchor="middle" font-size="12" font-weight="600" fill="#065f46">ValidatorService</text>
  <text x="315" y="393" text-anchor="middle" font-size="10" fill="#4b5563">syntax + semantic</text>
  <rect x="410" y="358" width="160" height="45" rx="6" fill="#ffffff" stroke="#10b981" stroke-width="1.3"/>
  <text x="490" y="377" text-anchor="middle" font-size="12" font-weight="600" fill="#065f46">SimulatorService</text>
  <text x="490" y="393" text-anchor="middle" font-size="10" fill="#4b5563">AST interpret</text>
  <rect x="585" y="358" width="160" height="45" rx="6" fill="#ffffff" stroke="#10b981" stroke-width="1.3"/>
  <text x="665" y="377" text-anchor="middle" font-size="12" font-weight="600" fill="#065f46">TemplateService</text>
  <text x="665" y="393" text-anchor="middle" font-size="10" fill="#4b5563">FF_FORMULA_TEMPLATES</text>
  <rect x="760" y="358" width="160" height="45" rx="6" fill="#ffffff" stroke="#10b981" stroke-width="1.3"/>
  <text x="840" y="377" text-anchor="middle" font-size="12" font-weight="600" fill="#065f46">RagService</text>
  <text x="840" y="393" text-anchor="middle" font-size="10" fill="#4b5563">formula search</text>
  <rect x="935" y="358" width="210" height="45" rx="6" fill="#ffffff" stroke="#10b981" stroke-width="1.3"/>
  <text x="1040" y="377" text-anchor="middle" font-size="12" font-weight="600" fill="#065f46">FormulaService / DbiService</text>
  <text x="1040" y="393" text-anchor="middle" font-size="10" fill="#4b5563">CRUD + metadata</text>
  <rect x="60" y="413" width="250" height="45" rx="6" fill="#ffffff" stroke="#10b981" stroke-width="1.3"/>
  <text x="185" y="432" text-anchor="middle" font-size="12" font-weight="600" fill="#065f46">FormulaTypesService</text>
  <text x="185" y="448" text-anchor="middle" font-size="10" fill="#4b5563">123 types · registry</text>
  <rect x="325" y="413" width="250" height="45" rx="6" fill="#ffffff" stroke="#10b981" stroke-width="1.3"/>
  <text x="450" y="432" text-anchor="middle" font-size="12" font-weight="600" fill="#065f46">ChatSessionStore</text>
  <text x="450" y="448" text-anchor="middle" font-size="10" fill="#4b5563">per-session history</text>
  <rect x="590" y="413" width="250" height="45" rx="6" fill="#ffffff" stroke="#10b981" stroke-width="1.3"/>
  <text x="715" y="432" text-anchor="middle" font-size="12" font-weight="600" fill="#065f46">LlmDebugLog</text>
  <text x="715" y="448" text-anchor="middle" font-size="10" fill="#4b5563">request / response capture</text>
  <rect x="855" y="413" width="290" height="45" rx="6" fill="#ffffff" stroke="#10b981" stroke-width="1.3"/>
  <text x="1000" y="432" text-anchor="middle" font-size="12" font-weight="600" fill="#065f46">FastFormulaResourceUtil</text>
  <text x="1000" y="448" text-anchor="middle" font-size="10" fill="#4b5563">shared helpers + AppsLogger</text>
  <rect x="40" y="500" width="540" height="130" rx="10" fill="#faf5ff" stroke="#d8b4fe" stroke-width="1.5" stroke-dasharray="5,3"/>
  <text x="60" y="522" font-size="12" font-weight="700" fill="#6b21a8">PARSER CORE  ·  Hand-written, zero deps</text>
  <rect x="60" y="538" width="120" height="75" rx="6" fill="#ffffff" stroke="#a855f7" stroke-width="1.3" filter="url(#ds)"/>
  <text x="120" y="570" text-anchor="middle" font-size="13" font-weight="600" fill="#6b21a8">Tokenizer</text>
  <text x="120" y="590" text-anchor="middle" font-size="11" fill="#64748b">lexer</text>
  <rect x="195" y="538" width="120" height="75" rx="6" fill="#ffffff" stroke="#a855f7" stroke-width="1.3" filter="url(#ds)"/>
  <text x="255" y="570" text-anchor="middle" font-size="13" font-weight="600" fill="#6b21a8">FFParser</text>
  <text x="255" y="590" text-anchor="middle" font-size="11" fill="#64748b">recursive descent</text>
  <rect x="330" y="538" width="120" height="75" rx="6" fill="#ffffff" stroke="#a855f7" stroke-width="1.3" filter="url(#ds)"/>
  <text x="390" y="570" text-anchor="middle" font-size="13" font-weight="600" fill="#6b21a8">AstNodes</text>
  <text x="390" y="590" text-anchor="middle" font-size="11" fill="#64748b">immutable AST</text>
  <rect x="465" y="538" width="100" height="75" rx="6" fill="#ffffff" stroke="#a855f7" stroke-width="1.3" filter="url(#ds)"/>
  <text x="515" y="570" text-anchor="middle" font-size="13" font-weight="600" fill="#6b21a8">Interpreter</text>
  <text x="515" y="590" text-anchor="middle" font-size="11" fill="#64748b">tree-walk</text>
  <rect x="610" y="500" width="550" height="130" rx="10" fill="#fff7ed" stroke="#fdba74" stroke-width="1.5" stroke-dasharray="5,3"/>
  <text x="630" y="522" font-size="12" font-weight="700" fill="#9a3412">LLM PROVIDERS  ·  LlmProvider interface</text>
  <rect x="630" y="538" width="240" height="75" rx="6" fill="#ffffff" stroke="#f97316" stroke-width="1.3" filter="url(#ds)"/>
  <text x="750" y="570" text-anchor="middle" font-size="13" font-weight="600" fill="#9a3412">OpenAiProvider</text>
  <text x="750" y="590" text-anchor="middle" font-size="11" fill="#64748b">GPT-5.4 · streaming</text>
  <rect x="890" y="538" width="250" height="75" rx="6" fill="#ffffff" stroke="#f97316" stroke-width="1.3" filter="url(#ds)"/>
  <text x="1015" y="570" text-anchor="middle" font-size="13" font-weight="600" fill="#9a3412">FusionAiProvider</text>
  <text x="1015" y="590" text-anchor="middle" font-size="11" fill="#64748b">Oracle AI Apps · usecase</text>
  <rect x="40" y="660" width="1120" height="130" rx="10" fill="#f1f5f9" stroke="#cbd5e1" stroke-width="1.5" stroke-dasharray="5,3"/>
  <text x="60" y="682" font-size="12" font-weight="700" fill="#334155">DATA LAYER</text>
  <ellipse cx="160" cy="708" rx="90" ry="12" fill="#ffffff" stroke="#475569" stroke-width="1.5"/>
  <rect x="70" y="708" width="180" height="55" fill="#ffffff" stroke="#475569" stroke-width="1.5"/>
  <ellipse cx="160" cy="763" rx="90" ry="12" fill="#ffffff" stroke="#475569" stroke-width="1.5"/>
  <line x1="70" y1="708" x2="70" y2="763" stroke="#475569" stroke-width="1.5"/>
  <line x1="250" y1="708" x2="250" y2="763" stroke="#475569" stroke-width="1.5"/>
  <text x="160" y="735" text-anchor="middle" font-size="13" font-weight="700" fill="#0f172a">Oracle Fusion DB</text>
  <text x="160" y="752" text-anchor="middle" font-size="10" fill="#64748b">FF_FORMULAS_VL · FF_FORMULA_TEMPLATES</text>
  <rect x="280" y="700" width="200" height="70" rx="6" fill="#ffffff" stroke="#64748b" stroke-width="1.3"/>
  <text x="380" y="722" text-anchor="middle" font-size="12" font-weight="600" fill="#1e293b">Classpath Resources</text>
  <text x="380" y="742" text-anchor="middle" font-size="10" fill="#64748b">all_formula_dbis.json</text>
  <text x="380" y="756" text-anchor="middle" font-size="10" fill="#64748b">time_labor_dbis.json</text>
  <rect x="500" y="700" width="210" height="70" rx="6" fill="#ffffff" stroke="#64748b" stroke-width="1.3"/>
  <text x="605" y="722" text-anchor="middle" font-size="12" font-weight="600" fill="#1e293b">Formula Registry</text>
  <text x="605" y="742" text-anchor="middle" font-size="10" fill="#64748b">formula_types_registry.json</text>
  <text x="605" y="756" text-anchor="middle" font-size="10" fill="#64748b">123 types · samples</text>
  <rect x="730" y="700" width="200" height="70" rx="6" fill="#ffffff" stroke="#64748b" stroke-width="1.3"/>
  <text x="830" y="722" text-anchor="middle" font-size="12" font-weight="600" fill="#1e293b">RAG Corpus</text>
  <text x="830" y="742" text-anchor="middle" font-size="10" fill="#64748b">501 formulas</text>
  <text x="830" y="756" text-anchor="middle" font-size="10" fill="#64748b">(embedded)</text>
  <rect x="950" y="700" width="200" height="70" rx="6" fill="#ffffff" stroke="#64748b" stroke-width="1.3"/>
  <text x="1050" y="722" text-anchor="middle" font-size="12" font-weight="600" fill="#1e293b">DB Config</text>
  <text x="1050" y="742" text-anchor="middle" font-size="10" fill="#64748b">dual-env</text>
  <text x="1050" y="756" text-anchor="middle" font-size="10" fill="#64748b">jdbc:oracle:thin</text>
  <path d="M 600,200 L 600,230" stroke="#2563eb" stroke-width="2" fill="none" marker-end="url(#arr-blue)"/>
  <rect x="608" y="208" width="90" height="16" fill="#fafafa" opacity="0.95" rx="2"/>
  <text x="653" y="220" text-anchor="middle" font-size="11" fill="#1e40af">axios / SSE</text>
  <path d="M 600,290 L 600,320" stroke="#2563eb" stroke-width="2" fill="none" marker-end="url(#arr-blue)"/>
  <path d="M 315,403 L 315,500" stroke="#7c3aed" stroke-width="1.5" fill="none" marker-end="url(#arr-purple)"/>
  <rect x="325" y="445" width="48" height="16" fill="#fafafa" opacity="0.95" rx="2"/>
  <text x="349" y="457" text-anchor="middle" font-size="10" fill="#6b21a8">parse</text>
  <path d="M 800,403 L 800,500" stroke="#ea580c" stroke-width="2" fill="none" marker-end="url(#arr-orange)"/>
  <rect x="808" y="445" width="70" height="16" fill="#fafafa" opacity="0.95" rx="2"/>
  <text x="843" y="457" text-anchor="middle" font-size="10" fill="#9a3412">LLM call</text>
  <path d="M 160,458 L 160,695" stroke="#059669" stroke-width="1.5" fill="none" marker-end="url(#arr-green)"/>
  <rect x="168" y="570" width="70" height="16" fill="#fafafa" opacity="0.95" rx="2"/>
  <text x="203" y="582" text-anchor="middle" font-size="10" fill="#065f46">JDBC read/write</text>
  <path d="M 840,403 Q 840,550 830,695" stroke="#059669" stroke-width="1.5" fill="none" marker-end="url(#arr-green)" stroke-dasharray="5,3"/>
  <rect x="848" y="540" width="60" height="16" fill="#fafafa" opacity="0.95" rx="2"/>
  <text x="878" y="552" text-anchor="middle" font-size="10" fill="#065f46">retrieve</text>
  <path d="M 185,458 Q 450,560 600,695" stroke="#059669" stroke-width="1.3" fill="none" marker-end="url(#arr-green)" stroke-dasharray="5,3"/>
  <g transform="translate(900,90)">
    <rect x="0" y="0" width="210" height="88" rx="6" fill="#ffffff" stroke="#e5e7eb" stroke-width="1"/>
    <text x="10" y="16" font-size="11" font-weight="700" fill="#374151">LEGEND</text>
    <line x1="10" y1="30" x2="40" y2="30" stroke="#2563eb" stroke-width="2"/>
    <text x="48" y="34" font-size="10" fill="#374151">HTTP / request flow</text>
    <line x1="10" y1="46" x2="40" y2="46" stroke="#ea580c" stroke-width="2"/>
    <text x="48" y="50" font-size="10" fill="#374151">LLM invocation</text>
    <line x1="10" y1="62" x2="40" y2="62" stroke="#059669" stroke-width="1.5" stroke-dasharray="5,3"/>
    <text x="48" y="66" font-size="10" fill="#374151">Data read</text>
    <line x1="10" y1="78" x2="40" y2="78" stroke="#7c3aed" stroke-width="1.5"/>
    <text x="48" y="82" font-size="10" fill="#374151">Parser invocation</text>
  </g>
  <text x="600" y="810" text-anchor="middle" font-size="10" fill="#9ca3af">109 JUnit tests · ANTLR4-free · Dual env (local OpenAI / Fusion AI Apps) · Deployed to Payroll VP DEV</text>
</svg>